<svg width="80" height="28" viewBox="0 0 80 28" fill="none" xmlns="http://www.w3.org/2000/svg">
<path d="M0.520625 21.7289V11.0211H11.6369V10.3948H0.520625V0.626148H12.3397V0H0V22.3551H12.4437V21.7289H0.520781H0.520625ZM22.4667 6.26185L17.8589 13.5571L13.355 6.26204H12.6781L17.5464 14.0269L12.2094 22.3549H12.8342L17.8586 14.4961L22.9091 22.3549H23.5598L18.197 14.0265L23.0912 6.26166H22.4666L22.4667 6.26185ZM25.122 27.8656V17.8467H25.1741C25.4866 19.3078 26.1027 20.4819 27.0225 21.3691C27.9423 22.2561 29.1138 22.6997 30.5369 22.6997C31.4567 22.6997 32.2725 22.4754 32.9841 22.0266C33.6956 21.5779 34.29 20.9673 34.7673 20.195C35.2445 19.4226 35.6091 18.5251 35.8608 17.5023C36.1123 16.4796 36.2383 15.4045 36.2383 14.2776C36.2383 13.0668 36.108 11.95 35.8477 10.9273C35.5873 9.90448 35.2098 9.01732 34.7153 8.26601C34.2206 7.51452 33.6219 6.92991 32.9189 6.51273C32.2161 6.09517 31.422 5.88639 30.5369 5.88639C29.86 5.88639 29.2309 6.00647 28.6495 6.24644C28.0681 6.4866 27.5519 6.82561 27.1006 7.26403C26.6467 7.70581 26.2516 8.22844 25.9291 8.8138C25.5994 9.40875 25.3477 10.061 25.1741 10.7708H25.122V6.26185H24.6014V27.8656H25.122V27.8656ZM30.5369 22.1046C28.9056 22.1046 27.5952 21.4315 26.6059 20.0852C25.6167 18.739 25.122 16.8028 25.122 14.2772C25.122 13.2335 25.2436 12.242 25.4866 11.3028C25.7295 10.3636 26.0809 9.53898 26.5408 8.8294C27.0008 8.11962 27.5692 7.55605 28.2459 7.13868C28.9228 6.72113 29.6866 6.51235 30.5369 6.51235C31.4047 6.51235 32.1641 6.72113 32.8148 7.13868C33.4656 7.55605 34.0038 8.12489 34.4289 8.84499C34.8541 9.5651 35.1752 10.3897 35.3922 11.3184C35.6091 12.2473 35.7175 13.2335 35.7175 14.2772C35.7175 15.2166 35.6178 16.1507 35.4181 17.0794C35.2186 18.0083 34.9105 18.8432 34.4939 19.5844C34.0775 20.3252 33.5439 20.9305 32.893 21.4003C32.242 21.8699 31.4567 22.1046 30.5369 22.1046V22.1046ZM39.1019 22.3551V13.244C39.1019 12.3674 39.2059 11.5114 39.4144 10.6766C39.6225 9.84172 39.9436 9.10583 40.3775 8.46934C40.8114 7.83267 41.3623 7.33168 42.0306 6.96636C42.6988 6.60105 43.4928 6.44977 44.4127 6.51235V5.8862C43.6142 5.86553 42.9158 5.96964 42.317 6.19928C41.7181 6.42891 41.2019 6.74199 40.768 7.13868C40.3341 7.53519 39.987 7.99954 39.7267 8.53192C39.4666 9.06345 39.2736 9.63849 39.1539 10.2382H39.1019V6.26185H38.5812V22.3553H39.1019V22.3551ZM45.0634 14.4337H56.2577C56.2925 13.3274 56.2014 12.2631 55.9844 11.2402C55.7675 10.2174 55.4203 9.30934 54.9431 8.51632C54.4658 7.72311 53.8497 7.08644 53.0947 6.60631C52.3397 6.12617 51.4416 5.8862 50.4003 5.8862C49.6539 5.8862 48.925 6.07412 48.2134 6.44996C47.5019 6.82561 46.877 7.3734 46.3391 8.0935C45.8011 8.81361 45.3672 9.69552 45.0375 10.7394C44.7078 11.7829 44.5428 12.9726 44.5428 14.3086C44.5428 15.4983 44.6556 16.6098 44.8812 17.643C45.1069 18.6762 45.4539 19.5739 45.9225 20.3357C46.3912 21.0975 46.9944 21.6872 47.7319 22.1046C48.4694 22.5221 49.3589 22.7204 50.4003 22.6995C51.9275 22.6995 53.2119 22.1828 54.2531 21.1498C55.2945 20.1164 55.9106 18.6606 56.1016 16.782H55.5809C55.3553 18.5563 54.7781 19.887 53.8497 20.7739C52.9211 21.6611 51.7541 22.1046 50.3481 22.1046C49.3936 22.1046 48.5866 21.9063 47.927 21.5098C47.2677 21.1133 46.7295 20.5704 46.313 19.8817C45.8966 19.1928 45.5884 18.384 45.3889 17.4551C45.1892 16.5264 45.0808 15.5191 45.0634 14.4337ZM55.737 13.8076H45.0636C45.1155 12.6804 45.2891 11.6681 45.5841 10.7706C45.8792 9.87291 46.2653 9.10583 46.7427 8.46934C47.2198 7.83267 47.7753 7.34746 48.4088 7.01334C49.0422 6.67941 49.7234 6.51235 50.4523 6.51235C51.3202 6.51235 52.0836 6.70553 52.7433 7.0917C53.4027 7.47788 53.9537 8.00499 54.3964 8.67286C54.8389 9.34073 55.173 10.1183 55.3986 11.0053C55.6242 11.8925 55.737 12.8266 55.737 13.8076ZM67.0616 11.0211H67.5822C67.5822 9.22591 67.1483 7.92137 66.2806 7.1073C65.4127 6.29323 64.2325 5.8862 62.74 5.8862C61.9069 5.8862 61.2041 6.01154 60.6313 6.26204C60.0586 6.51235 59.59 6.83595 59.2255 7.23246C58.8611 7.62897 58.6008 8.06738 58.4445 8.54752C58.2883 9.02765 58.2102 9.48693 58.2102 9.92515C58.2102 10.8018 58.3403 11.501 58.6008 12.0229C58.8611 12.5448 59.2689 12.9518 59.8242 13.244C60.2061 13.4526 60.6398 13.6405 61.1259 13.8078C61.6119 13.9746 62.1759 14.152 62.8181 14.3398C63.3908 14.507 63.9548 14.6739 64.5103 14.8408C65.0656 15.0078 65.5559 15.2322 65.9811 15.5139C66.4064 15.7958 66.7534 16.1558 67.0225 16.5942C67.2914 17.0325 67.4259 17.6066 67.4259 18.3161C67.4259 19.005 67.2916 19.5895 67.0225 20.0694C66.7557 20.5471 66.4046 20.948 65.9942 21.2437C65.5777 21.5463 65.1133 21.7654 64.6014 21.9011C64.0894 22.0368 63.5905 22.1046 63.1045 22.1046C61.5252 22.1046 60.3145 21.682 59.4728 20.8367C58.6311 19.9912 58.2103 18.6606 58.2103 16.8445H57.6895C57.6895 18.8694 58.1452 20.3513 59.0562 21.2907C59.9675 22.2299 61.3169 22.6995 63.1045 22.6995C63.6772 22.6995 64.2542 22.6212 64.8358 22.4646C65.417 22.3081 65.9378 22.0525 66.3977 21.6976C66.8536 21.3476 67.2366 20.8763 67.517 20.3201C67.8034 19.7564 67.9467 19.0676 67.9467 18.2536C67.9467 17.4812 67.8208 16.8551 67.5692 16.3749C67.3175 15.895 66.9878 15.4983 66.5798 15.1852C66.172 14.8721 65.7122 14.6269 65.2002 14.4495C64.6852 14.2711 64.1689 14.0988 63.6511 13.9327C63.0139 13.7317 62.3761 13.5334 61.7377 13.338C61.1911 13.1709 60.6834 12.9726 60.2148 12.743C59.7636 12.5134 59.4034 12.1847 59.1344 11.7568C58.8653 11.3289 58.7309 10.7184 58.7309 9.92515C58.7309 9.77914 58.7656 9.51812 58.835 9.14247C58.9044 8.76663 59.0694 8.38572 59.3297 7.99954C59.59 7.61356 59.9891 7.2691 60.5272 6.96636C61.0652 6.66381 61.8028 6.51235 62.74 6.51235C63.3822 6.51235 63.9678 6.59597 64.4972 6.76285C65.0266 6.92991 65.4822 7.196 65.8639 7.56132C66.2458 7.92663 66.5408 8.39098 66.7491 8.95455C66.9573 9.51831 67.0616 10.207 67.0616 11.0211V11.0211ZM79.1148 11.0211H79.6355C79.6355 9.22591 79.2017 7.92137 78.3339 7.1073C77.4661 6.29323 76.2859 5.8862 74.7933 5.8862C73.9603 5.8862 73.2573 6.01154 72.6847 6.26204C72.1119 6.51235 71.6433 6.83595 71.2789 7.23246C70.9144 7.62897 70.6541 8.06738 70.4978 8.54752C70.3416 9.02765 70.2636 9.48693 70.2636 9.92515C70.2636 10.8018 70.3938 11.501 70.6542 12.0229C70.9144 12.5448 71.3223 12.9518 71.8777 13.244C72.2595 13.4526 72.6933 13.6405 73.1792 13.8078C73.6652 13.9746 74.2292 14.152 74.8714 14.3398C75.4442 14.507 76.0083 14.6739 76.5636 14.8408C77.1191 15.0078 77.6092 15.2322 78.0345 15.5139C78.4597 15.7958 78.8069 16.1558 79.0758 16.5942C79.3448 17.0325 79.4794 17.6066 79.4794 18.3161C79.4794 19.005 79.3448 19.5895 79.0758 20.0694C78.8091 20.547 78.458 20.948 78.0477 21.2437C77.6309 21.5463 77.1667 21.7654 76.6547 21.9011C76.1428 22.0368 75.6438 22.1046 75.1578 22.1046C73.5784 22.1046 72.368 21.682 71.5263 20.8367C70.6844 19.9912 70.2636 18.6606 70.2636 16.8445H69.743C69.743 18.8694 70.1984 20.3513 71.1097 21.2907C72.0208 22.2299 73.3702 22.6995 75.1578 22.6995C75.7306 22.6995 76.3077 22.6212 76.8891 22.4646C77.4703 22.3081 77.9911 22.0525 78.4511 21.6976C78.907 21.3476 79.29 20.8763 79.5705 20.3201C79.8569 19.7564 80 19.0676 80 18.2536C80 17.4812 79.8742 16.8551 79.6225 16.3749C79.3709 15.895 79.0412 15.4983 78.6333 15.1852C78.2255 14.8721 77.7655 14.6269 77.2536 14.4495C76.7387 14.2711 76.2223 14.0988 75.7045 13.9327C75.0673 13.7317 74.4295 13.5334 73.7911 13.338C73.2444 13.1709 72.7367 12.9726 72.2681 12.743C71.8169 12.5134 71.4567 12.1847 71.1878 11.7568C70.9187 11.3289 70.7842 10.7184 70.7842 9.92515C70.7842 9.77914 70.8189 9.51812 70.8884 9.14247C70.9578 8.76663 71.1228 8.38572 71.383 7.99954C71.6433 7.61356 72.0425 7.2691 72.5805 6.96636C73.1186 6.66381 73.8561 6.51235 74.7934 6.51235C75.4356 6.51235 76.0213 6.59597 76.5506 6.76285C77.08 6.92991 77.5355 7.196 77.9173 7.56132C78.2992 7.92663 78.5942 8.39098 78.8025 8.95455C79.0108 9.51831 79.115 10.207 79.115 11.0211H79.1148Z" fill="#222222"/>
</svg>
