<svg width="40" height="40" viewBox="0 0 40 40" fill="none" xmlns="http://www.w3.org/2000/svg">
<path d="M18.603 33.5751C17.3687 32.5845 5.90617 21.4376 5.77804 21.3158C5.27179 20.8095 4.95304 20.2845 4.86554 19.8033C4.77492 19.3033 4.92804 18.8658 5.33429 18.4595C5.71242 18.0814 6.17492 17.8814 6.67179 17.8814C7.27804 17.8814 7.89992 18.1689 8.41867 18.6908L13.6155 23.6845C13.7062 23.772 13.8249 23.8158 13.9405 23.8158C14.0326 23.816 14.1226 23.789 14.1994 23.7381C14.2761 23.6873 14.3361 23.615 14.3718 23.5301C14.4076 23.4453 14.4174 23.3518 14.4002 23.2614C14.3829 23.171 14.3394 23.0877 14.2749 23.022L5.97804 14.4533C5.14679 13.622 4.75617 12.3501 5.74367 11.3626C6.12179 10.9845 6.58429 10.7845 7.08117 10.7845C7.68742 10.7845 8.30929 11.072 8.82804 11.5939L17.3155 19.8689C17.4062 19.9564 17.5249 20.0033 17.6437 20.0033C17.7624 20.0033 17.8843 19.9564 17.9749 19.8658C18.1562 19.6845 18.1593 19.3908 17.978 19.2064L7.78429 8.7564C7.31242 8.28452 7.02804 7.7189 6.97804 7.1689C6.93117 6.60952 7.12804 6.09077 7.54992 5.6689C7.92804 5.29077 8.39054 5.09077 8.88742 5.09077C9.49367 5.09077 10.1155 5.37827 10.6343 5.89702L21.0312 16.0345C21.1218 16.122 21.2405 16.1689 21.3593 16.1689C21.478 16.1689 21.5999 16.122 21.6905 16.0314C21.8718 15.8501 21.8749 15.5564 21.6937 15.372L14.1437 7.61265C13.6687 7.13765 13.3843 6.57515 13.3374 6.02515C13.2905 5.46577 13.4874 4.94702 13.9093 4.52515C14.2874 4.14702 14.7499 3.94702 15.2468 3.94702C15.853 3.94702 16.4749 4.23452 16.9937 4.7564C19.7624 7.47515 26.9905 14.5845 27.2343 14.847C28.1624 15.4876 28.3499 14.5189 28.3968 13.8908C28.4499 13.1595 27.6124 10.6064 28.0999 8.30952C28.9187 5.2564 31.278 5.7564 31.3312 5.7814C32.6249 6.38765 32.378 7.2939 31.9187 9.11577L31.8718 9.47515C31.3905 11.8564 34.6968 18.9126 34.9405 19.4408C36.2374 22.2783 37.7312 28.0314 32.7843 32.9783C27.3624 38.4001 20.6499 35.622 18.603 33.5751V33.5751Z" fill="url(#paint0_radial)"/>
<path d="M25.5596 36.6189C22.2346 36.6189 19.4065 35.0283 18.2908 33.9251C17.2877 33.1064 10.9565 26.9939 5.80022 21.9908C5.59085 21.7876 5.46897 21.672 5.45647 21.6564C4.8721 21.072 4.5096 20.4626 4.40647 19.8876C4.28772 19.2345 4.49085 18.6439 5.00335 18.1283C5.4721 17.6595 6.0471 17.4126 6.6721 17.4126C7.40647 17.4126 8.14397 17.7501 8.75022 18.3595L13.9408 23.347L5.64085 14.7783C4.6846 13.822 4.20335 12.2376 5.41272 11.0314C5.88147 10.5626 6.45647 10.3158 7.08147 10.3158C7.81585 10.3158 8.55335 10.6533 9.1596 11.2626L17.6408 19.5314L7.45022 9.08452C6.90647 8.54077 6.5721 7.87515 6.51272 7.21265C6.45335 6.5064 6.6971 5.85952 7.21897 5.33765C7.68772 4.8689 8.26272 4.62202 8.88772 4.62202C9.61897 4.62202 10.3565 4.9564 10.9658 5.56577L21.3596 15.7001L13.8096 7.94077C13.2627 7.3939 12.9283 6.72827 12.8721 6.06577C12.8127 5.36265 13.0565 4.71577 13.5783 4.1939C14.0471 3.72515 14.6221 3.47827 15.2471 3.47827C15.9815 3.47827 16.719 3.81577 17.3252 4.42515L19.5783 6.63452C23.594 10.572 26.9502 13.8689 27.3096 14.2376C27.4846 14.3783 27.7127 14.4314 27.8096 14.3845C27.8721 14.3533 27.9408 14.2095 27.9283 13.9064C27.9096 13.3751 27.8346 12.7158 27.7565 12.0189C27.6002 10.6189 27.4377 9.1689 27.6408 8.21265C28.0846 6.55327 28.9565 5.85015 29.6065 5.54702C30.5002 5.13452 31.3658 5.27827 31.5315 5.3564C33.1565 6.1189 32.8346 7.3939 32.3908 9.16265L32.3815 9.2064L32.3315 9.57202C32.0065 11.172 33.6752 15.5939 35.344 19.197L35.369 19.247C36.4846 21.6845 38.494 27.9376 33.119 33.3126C30.6471 35.7783 27.9721 36.6189 25.5596 36.6189V36.6189ZM6.6721 18.3501C6.30335 18.3501 5.95335 18.5033 5.66585 18.7908C5.36897 19.0876 5.26585 19.3751 5.32835 19.7189C5.3971 20.097 5.67522 20.547 6.1096 20.9845C6.11272 20.9876 6.23772 21.1095 6.45335 21.3158C13.7721 28.4189 18.1908 32.6408 18.8971 33.2095L18.9346 33.2439C20.6596 34.9689 27.069 38.0314 32.4533 32.647C37.4127 27.6876 35.5471 21.897 34.5127 19.6345L34.4908 19.5876C33.4158 17.2689 30.9721 11.6439 31.4065 9.40015L31.4783 8.9314C31.9596 7.0189 31.9877 6.6189 31.1721 6.22515C30.9315 6.1814 29.2065 5.97202 28.5471 8.4314C28.3815 9.21577 28.5408 10.6501 28.6815 11.9158C28.7627 12.6314 28.8377 13.3095 28.8565 13.8751C28.8877 14.7658 28.4658 15.1064 28.2096 15.2314C27.6877 15.4845 27.0658 15.2689 26.6783 14.9439L26.6377 14.9064C26.4471 14.7001 21.9127 10.2533 18.9127 7.30952L16.6565 5.0939C15.8877 4.32202 14.8971 4.1939 14.2315 4.85952C13.9065 5.18452 13.7596 5.56577 13.794 5.98765C13.8315 6.42827 14.069 6.88765 14.4658 7.28452L22.0315 15.0439C22.2034 15.2207 22.2991 15.4579 22.2979 15.7045C22.2967 15.9512 22.1988 16.1875 22.0252 16.3626C21.6783 16.7095 21.0658 16.7158 20.7096 16.372L10.3065 6.2314C9.53772 5.46265 8.54397 5.33452 7.88147 6.00015C7.55647 6.32515 7.4096 6.7064 7.44397 7.12827C7.4846 7.5689 7.7221 8.0314 8.11585 8.42202L18.3127 18.8783C18.6721 19.2408 18.669 19.8345 18.3065 20.197C17.9596 20.5439 17.3471 20.5501 16.9908 20.2064L8.50022 11.9283C7.73147 11.1533 6.73772 11.0283 6.07522 11.6939C5.26585 12.5033 5.6971 13.5064 6.3096 14.122L14.6127 22.697C14.7842 22.873 14.8793 23.1095 14.8775 23.3552C14.8758 23.6009 14.7773 23.836 14.6033 24.0095C14.2533 24.3595 13.6471 24.3626 13.2908 24.022L8.09397 19.0283C7.65647 18.5876 7.15335 18.3501 6.6721 18.3501V18.3501Z" fill="#EDA600"/>
<path d="M26.4875 14.5437C24.7719 18.0468 24.9937 22.95 27.5687 26.8843C27.8594 27.4156 28.3562 27.1562 28.1031 26.6093C24.9937 19.9562 28.2531 15.1625 28.2531 15.1625L26.4875 14.5437V14.5437Z" fill="#EDA600"/>
<path d="M19.7407 1.40618C20.6845 1.1593 21.6907 1.18118 22.6688 1.4093C23.6407 1.64368 24.6126 2.13743 25.3345 2.94368C26.0407 3.74368 26.4751 4.71555 26.622 5.7343C26.7595 6.74368 26.6313 7.7843 26.1532 8.6468C26.097 7.67805 25.9282 6.78743 25.6438 5.96555C25.497 5.55618 25.3251 5.16555 25.1157 4.7968C24.9095 4.43118 24.6657 4.06868 24.4063 3.7718C23.8782 3.16243 23.1626 2.68743 22.3595 2.31868C21.5532 1.93743 20.6751 1.65618 19.7407 1.40618V1.40618Z" fill="#B0BEC5"/>
<path d="M20 4.36882C20.5219 4.03757 21.175 3.96882 21.7906 4.07819C22.4125 4.18757 23.0062 4.49694 23.475 4.92507C23.9406 5.35944 24.2719 5.90632 24.4781 6.47507C24.5781 6.75944 24.6281 7.05944 24.675 7.35007C24.6906 7.65007 24.6906 7.95007 24.6437 8.25007C24.4281 8.02194 24.2594 7.79382 24.1 7.57194C23.9156 7.36257 23.7719 7.14069 23.6062 6.93757C23.2812 6.53444 22.9656 6.16882 22.625 5.84382C22.275 5.52819 21.9062 5.25007 21.4781 5.00944C21.0531 4.76257 20.575 4.55632 20 4.36882Z" fill="#90A4AE"/>
<path d="M2.13439 24.1689C2.57502 25.0314 3.03439 25.8314 3.56877 26.5377C4.10002 27.2439 4.70939 27.8439 5.41877 28.2346C5.76252 28.4252 6.17189 28.5908 6.57189 28.7158C6.97502 28.8439 7.39377 28.9314 7.82502 28.9908C8.68752 29.0971 9.59377 29.0783 10.5531 28.9314C9.80939 29.5783 8.81564 29.9221 7.80314 29.9971C6.77814 30.0658 5.73752 29.8439 4.80627 29.3189C3.86877 28.7846 3.18127 27.9346 2.75002 27.0314C2.31877 26.1221 2.08752 25.1439 2.13439 24.1689V24.1689Z" fill="#B0BEC5"/>
<path d="M5.0878 23.8032C5.39092 24.3282 5.69092 24.7501 6.01905 25.1188C6.34405 25.4876 6.69405 25.7907 7.0753 26.0657C7.4628 26.3313 7.8878 26.5657 8.3503 26.8001C8.58155 26.9188 8.82842 27.0126 9.07217 27.1501C9.3253 27.2595 9.58155 27.3751 9.8503 27.5407C9.56592 27.647 9.2753 27.7095 8.97842 27.7563C8.68467 27.7688 8.38155 27.7845 8.08155 27.7438C7.48155 27.6626 6.88155 27.4532 6.35655 27.0876C5.84092 26.7157 5.4128 26.2001 5.17842 25.6157C4.94092 25.0345 4.87217 24.3845 5.0878 23.8032V23.8032Z" fill="#90A4AE"/>
<defs>
<radialGradient id="paint0_radial" cx="0" cy="0" r="1" gradientUnits="userSpaceOnUse" gradientTransform="translate(13.7645 11.8753) rotate(-45) scale(28.44)">
<stop offset="0.353" stop-color="#FFCA28"/>
<stop offset="0.872" stop-color="#FFB300"/>
</radialGradient>
</defs>
</svg>
