<svg width="35" height="35" viewBox="0 0 35 35" fill="none" xmlns="http://www.w3.org/2000/svg">
<path d="M29.8207 29.8214H24.6348V21.6999C24.6348 19.7633 24.6002 17.2702 21.9376 17.2702C19.2366 17.2702 18.8233 19.3803 18.8233 21.5589V29.8208H13.6375V13.1198H18.6159V15.4022H18.6856C19.1838 14.5503 19.9038 13.8495 20.7688 13.3744C21.6338 12.8993 22.6114 12.6678 23.5976 12.7044C28.8538 12.7044 29.8229 16.1617 29.8229 20.6595L29.8207 29.8214V29.8214ZM7.78598 10.837C6.12389 10.8373 4.77625 9.49009 4.77598 7.828C4.7757 6.16591 6.12279 4.81828 7.78488 4.818C9.44697 4.81759 10.7946 6.16482 10.7949 7.82691C10.795 8.62508 10.4781 9.39062 9.91383 9.95512C9.34955 10.5196 8.58415 10.8369 7.78598 10.837V10.837ZM10.379 29.8215H5.18764V13.1198H10.3788V29.8214L10.379 29.8215ZM32.406 0.00181491H2.58178C1.17221 -0.0140445 0.01625 1.11512 -0.000976562 2.52469V32.4733C0.0157031 33.8836 1.17152 35.0138 2.58164 34.9991H32.406C33.8191 35.0166 34.9795 33.8863 34.999 32.4733V2.52236C34.9789 1.11006 33.8185 -0.0189663 32.406 -0.000509312" fill="#DDC09A"/>
</svg>
