<svg width="50" height="50" viewBox="0 0 138 81" fill="none" xmlns="http://www.w3.org/2000/svg">
<path d="M0.359375 0.03125H23.0938V4.15625H7.90625V76.625H23.0938V80.6562H0.359375V0.03125ZM30.3594 68V64.0625L36.125 63.3125L37.8594 61.4844V9.35938L36.6406 8L30.2656 7.4375V3.59375H50.6562V6.17188L68.7031 54.3594L86.9375 6.54688V3.59375H107.469V7.4375L101.422 8L100.25 9.35938V62.2344L101.422 63.5938L107.469 64.0625V68H84.5469V64.0625L90.875 63.5938L91.8125 62.2344V8.09375L69.0781 68H64.9531L43.0625 9.07812V61.4844L44.7969 63.3125L50.6562 64.0625V68H30.3594ZM114.969 0.03125H137.656V80.75H114.969V76.625H130.156V4.15625H114.969V0.03125Z" fill="#DDC09A"/>
</svg>

