<svg width="85" height="36" viewBox="0 0 85 36" fill="none" xmlns="http://www.w3.org/2000/svg">
<g filter="url(#filter0_d)">
<path d="M42.0821 28.0001C41.8212 28.0001 41.5775 27.9587 41.3512 27.8864L39.0364 27.0699C38.6882 26.9562 38.8623 26.9148 38.9668 26.8942C39.4367 26.8012 39.5237 26.7804 40.011 26.6152C40.0633 26.5944 40.133 26.6048 40.1851 26.6254L41.9605 27.2559C42.03 27.2766 42.1171 27.2766 42.1692 27.2559L49.1139 24.8683C49.1834 24.8477 49.2184 24.8063 49.2184 24.7547V19.9899C49.2184 19.9381 49.1834 19.8969 49.1139 19.8761L42.1692 17.4989C42.0996 17.4781 42.0126 17.4781 41.9605 17.4989L35.0158 19.8761C34.9462 19.8968 34.9113 19.9485 34.9113 19.9898V24.7546C34.9113 24.796 34.9462 24.8476 35.0158 24.8683L36.913 25.5195C37.9399 25.8295 38.5838 25.4678 38.5838 25.106V20.4032C38.5838 20.3412 38.6709 20.2792 38.7927 20.2792H39.6803C39.7848 20.2792 39.8892 20.3309 39.8892 20.4032V25.106C39.8892 25.9225 39.1407 26.398 37.8354 26.398C37.4351 26.398 37.1219 26.398 36.2341 26.1396L34.4066 25.5195C33.9541 25.3645 33.6757 25.075 33.6757 24.765V20.0001C33.6757 19.6901 33.9541 19.4006 34.4066 19.2456L41.3512 16.858C41.7864 16.7133 42.3782 16.7133 42.8133 16.858L49.7578 19.2456C50.2103 19.4006 50.4889 19.6901 50.4889 20.0001V24.765C50.4889 25.075 50.2103 25.3645 49.7578 25.5195L42.8133 27.9071C42.5869 27.9691 42.326 28.0001 42.0823 28.0001H42.0821ZM44.223 24.7236C41.1772 24.7236 40.5506 23.8968 40.5506 23.1939C40.5506 23.1319 40.6376 23.0699 40.7595 23.0699H41.6645C41.7689 23.0699 41.856 23.1112 41.856 23.1733C41.9953 23.721 42.3955 23.9898 44.2405 23.9898C45.7024 23.9898 46.3292 23.7934 46.3292 23.3283C46.3292 23.0595 46.155 22.8632 43.875 22.7288C41.9778 22.6151 40.7943 22.3671 40.7943 21.4679C40.7943 20.6306 41.9779 20.1345 43.962 20.1345C46.1898 20.1345 47.2864 20.5893 47.4257 21.5814C47.4257 21.6126 47.4082 21.6435 47.3734 21.6745C47.3385 21.6952 47.2864 21.7159 47.2341 21.7159H46.3291C46.242 21.7159 46.155 21.6745 46.1377 21.6228C45.9288 21.0544 45.3892 20.8683 43.962 20.8683C42.3607 20.8683 42.1692 21.1991 42.1692 21.4471C42.1692 21.7469 42.3955 21.8399 44.5537 22.0052C46.6946 22.1707 47.7041 22.4084 47.7041 23.2972C47.6867 24.2068 46.4336 24.7236 44.223 24.7236Z" fill="#539E43"/>
<path d="M20.5348 9.36413C20.5348 9.17812 20.3607 9.0023 20.0823 8.90929L12.7026 6.38738C12.5806 6.34597 12.4414 6.32532 12.3023 6.31494H12.2325C12.0934 6.31494 11.9541 6.34597 11.8323 6.38738L4.45254 8.90929C4.17394 9.0023 4 9.17803 4 9.36413L4.01747 16.1444C4.01747 16.2374 4.10451 16.3304 4.24366 16.3718C4.38296 16.4235 4.5569 16.4235 4.67888 16.3718L9.06494 14.8835C9.34339 14.7905 9.51748 14.6147 9.51748 14.4287V11.2556C9.51748 11.0696 9.69142 10.8938 9.97002 10.8008L11.8323 10.16C11.9716 10.1083 12.1282 10.0875 12.2848 10.0875C12.4414 10.0875 12.598 10.1083 12.72 10.16L14.5823 10.8008C14.8609 10.8938 15.0348 11.0695 15.0348 11.2556V14.4287C15.0348 14.6147 15.2089 14.7905 15.4873 14.8835L19.8734 16.3718C20.0127 16.4235 20.1866 16.4235 20.3259 16.3718C20.4652 16.3304 20.5523 16.2374 20.5523 16.1444L20.5348 9.36413Z" fill="#333333"/>
<path d="M56.0063 0.0310544C55.8672 -0.0103515 55.6931 -0.0103515 55.5711 0.0310544C55.432 0.0827447 55.3449 0.165378 55.3449 0.258384V6.97678C55.3449 7.03876 55.2928 7.10073 55.1883 7.14214C55.084 7.17308 54.9794 7.17308 54.8751 7.14214L53.0301 6.51166C52.8949 6.46592 52.7419 6.44188 52.5863 6.44188C52.4306 6.44188 52.2776 6.46592 52.1424 6.51166L44.7627 9.04395C44.4842 9.13695 44.3101 9.31268 44.3101 9.4987V14.5529C44.3101 14.7389 44.4842 14.9147 44.7627 15.0077L52.1424 17.54C52.2776 17.5858 52.4306 17.6098 52.5863 17.6098C52.7419 17.6098 52.8949 17.5858 53.0301 17.54L60.4099 15.0077C60.6883 14.9147 60.8624 14.739 60.8624 14.5529V1.95352C60.8624 1.75713 60.6883 1.5815 60.4099 1.4884L56.0065 0.0310544H56.0063ZM55.3276 12.8889C55.3276 12.9406 55.2928 12.9819 55.2231 13.0025L52.6994 13.8707C52.6642 13.8809 52.6255 13.8862 52.5863 13.8862C52.547 13.8862 52.5083 13.8809 52.4731 13.8707L49.9494 13.0025C49.8797 12.9819 49.8449 12.9302 49.8449 12.8889V11.1524C49.8449 11.1007 49.8797 11.0594 49.9494 11.0388L52.4731 10.1705C52.5083 10.1603 52.547 10.155 52.5863 10.155C52.6255 10.155 52.6642 10.1603 52.6994 10.1705L55.2231 11.0388C55.2928 11.0593 55.3276 11.1111 55.3276 11.1524V12.8889Z" fill="#333333"/>
<path d="M80.5647 11.1111C80.8433 11.0181 81 10.8423 81 10.6562V9.4263C81 9.24029 80.8259 9.06456 80.5647 8.97155L73.2373 6.44964C73.102 6.40392 72.9491 6.37988 72.7935 6.37988C72.6378 6.37988 72.4849 6.40392 72.3497 6.44964L64.9699 8.98184C64.6913 9.07485 64.5174 9.25058 64.5174 9.43668V14.4909C64.5174 14.6769 64.6913 14.8526 64.9699 14.9456L72.2974 17.4262C72.576 17.5192 72.9066 17.5192 73.1677 17.4262L77.6059 15.9587C77.7452 15.9173 77.8322 15.8243 77.8322 15.7313C77.8322 15.6383 77.7452 15.5453 77.6059 15.5038L70.1913 12.9716C70.0522 12.92 69.9651 12.8372 69.9651 12.7442V11.1628C69.9651 11.0698 70.0522 10.9768 70.1913 10.9354L72.5063 10.1499C72.574 10.1246 72.6525 10.1111 72.7325 10.1111C72.8126 10.1111 72.891 10.1246 72.9588 10.1499L75.2736 10.9354C75.4129 10.9871 75.4999 11.0698 75.4999 11.1628V12.4031C75.4999 12.4962 75.587 12.5892 75.7261 12.6305C75.8654 12.6822 76.0394 12.6822 76.1787 12.6305L80.5647 11.1111V11.1111Z" fill="#333333"/>
<path d="M72.6804 10.8734C72.7062 10.8633 72.7364 10.8579 72.7674 10.8579C72.7983 10.8579 72.8285 10.8633 72.8543 10.8734L74.2642 11.3592C74.3164 11.3797 74.3512 11.4108 74.3512 11.4522V12.4237C74.3512 12.4651 74.3164 12.4961 74.2642 12.5167L72.8543 13.0025C72.8285 13.0126 72.7983 13.018 72.7674 13.018C72.7364 13.018 72.7062 13.0126 72.6804 13.0025L71.2705 12.5167C71.2183 12.4961 71.1835 12.4651 71.1835 12.4237V11.4522C71.1835 11.4108 71.2183 11.3797 71.2705 11.3592L72.6804 10.8734V10.8734Z" fill="#539E43"/>
<mask id="mask0" mask-type="alpha" maskUnits="userSpaceOnUse" x="24" y="6" width="17" height="12">
<path d="M32.875 6.47039C32.7398 6.42467 32.5868 6.40063 32.4312 6.40063C32.2756 6.40063 32.1227 6.42467 31.9874 6.47039L24.6599 8.98184C24.3813 9.07485 24.2247 9.25058 24.2247 9.43659V14.4702C24.2247 14.6562 24.3988 14.832 24.6599 14.925L31.9874 17.4366C32.1227 17.4823 32.2756 17.5064 32.4312 17.5064C32.5868 17.5064 32.7398 17.4823 32.875 17.4366L40.2027 14.925C40.4811 14.832 40.6379 14.6562 40.6379 14.4702V9.43668C40.6379 9.25067 40.4636 9.07494 40.2027 8.98193L32.875 6.47039Z" fill="white"/>
</mask>
<g mask="url(#mask0)">
<path d="M32.875 6.47039C32.7398 6.42467 32.5868 6.40063 32.4312 6.40063C32.2756 6.40063 32.1227 6.42467 31.9874 6.47039L24.6599 8.98184C24.3813 9.07485 24.2247 9.25058 24.2247 9.43659V14.4702C24.2247 14.6562 24.3988 14.832 24.6599 14.925L31.9874 17.4366C32.1227 17.4823 32.2756 17.5064 32.4312 17.5064C32.5868 17.5064 32.7398 17.4823 32.875 17.4366L40.2027 14.925C40.4811 14.832 40.6379 14.6562 40.6379 14.4702V9.43668C40.6379 9.25067 40.4636 9.07494 40.2027 8.98193L32.875 6.47039Z" fill="url(#paint0_linear)"/>
<path d="M40.2199 8.98266L32.8576 6.47112C32.7853 6.44943 32.7095 6.43211 32.6313 6.41943L24.3813 14.8122C24.4496 14.8618 24.5322 14.9038 24.6251 14.9363L31.9874 17.4479C32.1962 17.5202 32.4399 17.5409 32.6661 17.4995L40.4115 9.08613C40.3592 9.04482 40.2895 9.0137 40.2199 8.98275V8.98266Z" fill="url(#paint1_linear)"/>
<path fill-rule="evenodd" clip-rule="evenodd" d="M40.2374 14.9251C40.4463 14.8527 40.6029 14.7287 40.6727 14.5944L32.5964 6.40833C32.3875 6.38767 32.1612 6.39796 31.9699 6.47031L24.6598 8.97165L32.5442 17.509C32.6588 17.4979 32.7702 17.477 32.8749 17.4471L40.2373 14.9252L40.2374 14.9251Z" fill="url(#paint2_linear)"/>
<path fill-rule="evenodd" clip-rule="evenodd" d="M40.2374 14.9251L32.8925 17.4367C32.7888 17.4681 32.677 17.489 32.5618 17.4987L32.7011 17.6537L40.8466 14.8528V14.7907L40.6377 14.584C40.6029 14.7287 40.4463 14.8527 40.2374 14.9251V14.9251Z" fill="url(#paint3_linear)"/>
<path fill-rule="evenodd" clip-rule="evenodd" d="M40.2374 14.9251L32.8925 17.4367C32.7888 17.4681 32.677 17.489 32.5618 17.4987L32.7011 17.6537L40.8466 14.8528V14.7907L40.6377 14.584C40.6029 14.7287 40.4463 14.8527 40.2374 14.9251V14.9251Z" fill="url(#paint4_linear)"/>
</g>
</g>
<defs>
<filter id="filter0_d" x="0" y="0" width="85" height="36.0001" filterUnits="userSpaceOnUse" color-interpolation-filters="sRGB">
<feFlood flood-opacity="0" result="BackgroundImageFix"/>
<feColorMatrix in="SourceAlpha" type="matrix" values="0 0 0 0 0 0 0 0 0 0 0 0 0 0 0 0 0 0 127 0" result="hardAlpha"/>
<feOffset dy="4"/>
<feGaussianBlur stdDeviation="2"/>
<feComposite in2="hardAlpha" operator="out"/>
<feColorMatrix type="matrix" values="0 0 0 0 0 0 0 0 0 0 0 0 0 0 0 0 0 0 0.25 0"/>
<feBlend mode="normal" in2="BackgroundImageFix" result="effect1_dropShadow"/>
<feBlend mode="normal" in="SourceGraphic" in2="effect1_dropShadow" result="shape"/>
</filter>
<linearGradient id="paint0_linear" x1="35.4165" y1="8.34269" x2="31.9344" y2="17.5564" gradientUnits="userSpaceOnUse">
<stop stop-color="#41873F"/>
<stop offset="0.3288" stop-color="#418B3D"/>
<stop offset="0.6352" stop-color="#419637"/>
<stop offset="0.9319" stop-color="#3FA92D"/>
<stop offset="1" stop-color="#3FAE2A"/>
</linearGradient>
<linearGradient id="paint1_linear" x1="31.3187" y1="12.5438" x2="45.5004" y2="-0.430944" gradientUnits="userSpaceOnUse">
<stop offset="0.1376" stop-color="#41873F"/>
<stop offset="0.4032" stop-color="#54A044"/>
<stop offset="0.7136" stop-color="#66B848"/>
<stop offset="0.9081" stop-color="#6CC04A"/>
</linearGradient>
<linearGradient id="paint2_linear" x1="23.957" y1="11.9537" x2="40.9127" y2="11.9537" gradientUnits="userSpaceOnUse">
<stop offset="0.09192" stop-color="#6CC04A"/>
<stop offset="0.2864" stop-color="#66B848"/>
<stop offset="0.5968" stop-color="#54A044"/>
<stop offset="0.8624" stop-color="#41873F"/>
</linearGradient>
<linearGradient id="paint3_linear" x1="23.9571" y1="16.1273" x2="40.9126" y2="16.1273" gradientUnits="userSpaceOnUse">
<stop offset="0.09192" stop-color="#6CC04A"/>
<stop offset="0.2864" stop-color="#66B848"/>
<stop offset="0.5968" stop-color="#54A044"/>
<stop offset="0.8624" stop-color="#41873F"/>
</linearGradient>
<linearGradient id="paint4_linear" x1="43.3828" y1="8.10467" x2="41.8327" y2="21.7822" gradientUnits="userSpaceOnUse">
<stop stop-color="#41873F"/>
<stop offset="0.3288" stop-color="#418B3D"/>
<stop offset="0.6352" stop-color="#419637"/>
<stop offset="0.9319" stop-color="#3FA92D"/>
<stop offset="1" stop-color="#3FAE2A"/>
</linearGradient>
</defs>
</svg>
