<svg width="35" height="35" viewBox="0 0 35 35" fill="none" xmlns="http://www.w3.org/2000/svg">
<path d="M26.3594 2.26636L32.445 8.61011V32.7339H9.71143V32.8126H32.5227V8.68995L26.3594 2.26636Z" fill="FFF"/>
<path d="M26.2839 2.1875H9.63379V32.7337H32.445V8.61109L26.2829 2.1875" fill="#FFF"/>
<path d="M9.46636 3.82812H2.47729V11.2952H24.4617V3.82812H9.46636Z" fill="#DDC09A"/>
<path d="M24.5788 11.1683H2.61963V3.6958H24.5788V11.1683Z" fill="#DDC09A"/>
<path d="M9.90072 4.95898H8.47119V10.209H9.59557V8.4382L9.84385 8.45242C10.0851 8.44827 10.3241 8.40505 10.5515 8.32445C10.7509 8.25587 10.9343 8.1476 11.0907 8.00617C11.2499 7.87144 11.3753 7.70141 11.4571 7.50961C11.5668 7.19078 11.606 6.85194 11.572 6.51648C11.5651 6.27685 11.5231 6.03952 11.4473 5.81211C11.3782 5.64795 11.2758 5.49995 11.1464 5.37755C11.017 5.25516 10.8636 5.16103 10.6959 5.10117C10.5509 5.04867 10.401 5.01057 10.2485 4.98742C10.1331 4.96961 10.0165 4.9601 9.89963 4.95898H9.90072ZM9.69291 7.46805H9.59557V5.8493H9.80666C9.89983 5.84258 9.99331 5.85688 10.0802 5.89115C10.1671 5.92541 10.2452 5.97877 10.3087 6.04727C10.4403 6.22338 10.5106 6.43774 10.5088 6.65758C10.5088 6.92664 10.5088 7.17055 10.266 7.34227C10.0911 7.43848 9.892 7.48179 9.69291 7.46695" fill="#464648"/>
<path d="M13.7081 4.94473C13.5867 4.94473 13.4685 4.95348 13.3854 4.95676L13.1251 4.96332H12.272V10.2133H13.276C13.6597 10.2238 14.0418 10.1588 14.4004 10.0219C14.6891 9.90742 14.9447 9.72286 15.1442 9.48488C15.3381 9.24475 15.4774 8.96517 15.5521 8.66566C15.6381 8.32646 15.68 7.9776 15.6768 7.62769C15.698 7.21443 15.6661 6.80015 15.5817 6.39504C15.5016 6.09684 15.3516 5.82201 15.1442 5.59332C14.9814 5.40865 14.7822 5.25969 14.559 5.15582C14.3674 5.06713 14.1658 5.00177 13.9585 4.96113C13.8761 4.94752 13.7927 4.9413 13.7092 4.94254L13.7081 4.94473ZM13.5101 9.24863H13.4007V5.89738H13.4149C13.6404 5.87144 13.8686 5.91212 14.0712 6.01441C14.2196 6.1329 14.3405 6.28216 14.4256 6.45191C14.5174 6.63056 14.5703 6.82664 14.5809 7.02723C14.5907 7.26785 14.5809 7.46473 14.5809 7.62769C14.5853 7.81542 14.5733 8.00318 14.5448 8.18879C14.5111 8.37935 14.4488 8.56372 14.3599 8.73566C14.2594 8.89552 14.1236 9.03022 13.9629 9.12941C13.828 9.21669 13.6682 9.25741 13.5079 9.24535" fill="#DDC09A"/>
<path d="M19.0641 4.96338H16.4062V10.2134H17.5306V8.13088H18.9525V7.15525H17.5306V5.939H19.0619V4.96338" fill="#DDC09A"/>
<path d="M23.823 22.154C23.823 22.154 27.3099 21.5218 27.3099 22.7129C27.3099 23.904 25.1497 23.4195 23.823 22.154ZM21.245 22.2448C20.691 22.3672 20.1511 22.5464 19.6339 22.7796L20.0714 21.7953C20.5089 20.8109 20.9628 19.4689 20.9628 19.4689C21.4849 20.3475 22.0923 21.1725 22.7763 21.932C22.2605 22.0089 21.7493 22.1141 21.245 22.247V22.2448ZM19.8647 15.1354C19.8647 14.0975 20.2005 13.8142 20.4619 13.8142C20.7233 13.8142 21.0175 13.94 21.0274 14.8412C20.9422 15.7474 20.7525 16.6408 20.4619 17.5034C20.0639 16.7792 19.8579 15.9651 19.8636 15.1387L19.8647 15.1354ZM14.7799 26.6373C13.7102 25.9975 17.0232 24.0276 17.6236 23.9642C17.6203 23.9653 15.8999 27.3067 14.7799 26.6373V26.6373ZM28.3282 22.854C28.3172 22.7447 28.2188 21.5339 26.0641 21.5853C25.166 21.5708 24.2683 21.6341 23.3811 21.7745C22.5217 20.9087 21.7817 19.9321 21.1805 18.8706C21.5592 17.7762 21.7884 16.6357 21.8619 15.48C21.8302 14.1675 21.5163 13.415 20.51 13.4259C19.5038 13.4368 19.3572 14.3173 19.4896 15.6276C19.6192 16.5081 19.8637 17.3679 20.2169 18.1848C20.2169 18.1848 19.7521 19.6318 19.1374 21.0712C18.5227 22.5106 18.1027 23.2653 18.1027 23.2653C17.0338 23.6132 16.0276 24.1302 15.1222 24.7965C14.221 25.6354 13.8546 26.2796 14.3292 26.9239C14.7383 27.4795 16.17 27.6053 17.4497 25.9286C18.1297 25.0625 18.7508 24.152 19.3091 23.2029C19.3091 23.2029 21.2603 22.6681 21.8674 22.5215C22.4744 22.375 23.2083 22.259 23.2083 22.259C23.2083 22.259 24.99 24.0517 26.7083 23.9882C28.4266 23.9248 28.3435 22.9612 28.3325 22.8562" fill="#DDC09A"/>
<path d="M26.1997 2.27173V8.69532H32.3608L26.1997 2.27173Z" fill="#DDC09A"/>
<path d="M26.2839 2.1875V8.61109H32.445L26.2839 2.1875Z" fill="#DDC09A"/>
<path d="M9.81649 4.87476H8.38696V10.1248H9.51571V8.35507L9.76509 8.36929C10.0063 8.36514 10.2453 8.32192 10.4727 8.24132C10.6721 8.17271 10.8555 8.06444 11.012 7.92304C11.1699 7.78795 11.2942 7.61794 11.3751 7.42647C11.4848 7.10764 11.524 6.7688 11.4899 6.43335C11.4831 6.19372 11.4411 5.95639 11.3652 5.72897C11.2962 5.56481 11.1937 5.41682 11.0644 5.29442C10.935 5.17202 10.7816 5.0779 10.6138 5.01804C10.4681 4.96502 10.3176 4.92656 10.1643 4.90319C10.0488 4.88538 9.93223 4.87587 9.8154 4.87476H9.81649ZM9.60868 7.38382H9.51134V5.76507H9.72353C9.81669 5.75835 9.91018 5.77265 9.99707 5.80692C10.084 5.84118 10.1621 5.89454 10.2256 5.96304C10.3572 6.13915 10.4275 6.35351 10.4257 6.57335C10.4257 6.84241 10.4257 7.08632 10.1829 7.25804C10.008 7.35425 9.80886 7.39757 9.60978 7.38272" fill="white"/>
<path d="M13.6237 4.86074C13.5023 4.86074 13.3842 4.86949 13.3011 4.87277L13.044 4.87933H12.1909V10.1293H13.195C13.5787 10.1399 13.9607 10.0748 14.3194 9.93793C14.608 9.82344 14.8636 9.63888 15.0631 9.4009C15.2571 9.16077 15.3963 8.88119 15.4711 8.58168C15.557 8.24247 15.5989 7.89362 15.5958 7.54371C15.617 7.13044 15.585 6.71617 15.5006 6.31105C15.4205 6.01286 15.2705 5.73803 15.0631 5.50933C14.9003 5.32467 14.7011 5.17571 14.4779 5.07183C14.2863 4.98315 14.0847 4.91779 13.8775 4.87715C13.7951 4.86353 13.7116 4.85731 13.6281 4.85855L13.6237 4.86074ZM13.429 9.16465H13.3197V5.8134H13.3339C13.5594 5.78745 13.7875 5.82814 13.9901 5.93043C14.1385 6.04891 14.2594 6.19818 14.3445 6.36793C14.4363 6.54658 14.4893 6.74265 14.4998 6.94324C14.5097 7.18387 14.4998 7.38074 14.4998 7.54371C14.5043 7.73144 14.4922 7.91919 14.4637 8.1048C14.43 8.29537 14.3677 8.47974 14.2789 8.65168C14.1784 8.81154 14.0425 8.94623 13.8819 9.04543C13.7469 9.13271 13.5871 9.17343 13.4269 9.16137" fill="white"/>
<path d="M18.9798 4.87915H16.322V10.1292H17.4464V8.04665H18.8683V7.07103H17.4464V5.85478H18.9776V4.87915" fill="#FFF"/>
</svg>
