<svg width="38" height="36" viewBox="0 0 38 36" fill="none" xmlns="http://www.w3.org/2000/svg">
<g filter="url(#filter0_d)">
<path d="M28.666 9.07536C28.3467 8.96046 28.0247 8.854 27.7004 8.75611C27.7548 8.52254 27.805 8.29179 27.8495 8.0651C28.5805 4.34258 28.1027 1.34363 26.4704 0.356238C24.9053 -0.590344 22.3458 0.396683 19.7609 2.75662C19.5061 2.98962 19.257 3.22933 19.0138 3.47553C18.851 3.31182 18.6853 3.15128 18.5168 2.99401C15.8077 0.470688 13.0922 -0.592803 11.4617 0.39742C9.89805 1.34695 9.43504 4.16617 10.0932 7.69409C10.1586 8.0435 10.2326 8.3911 10.3149 8.73656C9.93051 8.85114 9.55961 8.97308 9.20465 9.1029C6.0284 10.2646 4 12.0851 4 13.9735C4 15.9238 6.17758 17.8801 9.48578 19.0662C9.75398 19.162 10.0244 19.2507 10.2968 19.3324C10.2084 19.7045 10.1298 20.0791 10.0613 20.4557C9.43387 23.9224 9.92383 26.675 11.4832 27.6185C13.0939 28.5929 15.7971 27.5915 18.4293 25.1777C18.6427 24.9815 18.8515 24.7797 19.0553 24.5725C19.3187 24.8391 19.5891 25.0979 19.8662 25.3487C22.416 27.6503 24.9341 28.5796 26.492 27.6335C28.1011 26.6563 28.6241 23.6993 27.9452 20.1017C27.8917 19.8198 27.8317 19.5394 27.7653 19.2606C27.9551 19.2016 28.1414 19.1409 28.3231 19.0777C31.7623 17.8824 34 15.9499 34 13.9735C34 12.0782 31.9061 10.2454 28.666 9.07536V9.07536ZM27.9201 17.8016C27.756 17.8585 27.5877 17.9135 27.4162 17.967C27.0365 16.706 26.5241 15.3653 25.8971 13.98C26.4954 12.6278 26.9881 11.3041 27.3571 10.0515C27.664 10.1446 27.9618 10.2429 28.2489 10.3465C31.0251 11.3491 32.7184 12.8313 32.7184 13.9735C32.7184 15.19 30.8896 16.7694 27.9201 17.8016V17.8016ZM26.688 20.3628C26.9882 21.9536 27.031 23.3919 26.8321 24.5163C26.6535 25.5267 26.2942 26.2003 25.8498 26.4701C24.9045 27.0442 22.8827 26.298 20.7021 24.3296C20.4444 24.0964 20.1928 23.8558 19.9478 23.608C20.7932 22.6382 21.638 21.5108 22.4625 20.2586C23.9129 20.1236 25.283 19.9028 26.5255 19.6015C26.5867 19.8605 26.6411 20.1145 26.688 20.3628V20.3628ZM14.2277 26.3709C13.304 26.713 12.5683 26.7229 12.1236 26.4539C11.1773 25.8814 10.7839 23.6712 11.3205 20.7065C11.3843 20.3562 11.4573 20.0078 11.5395 19.6617C12.7683 19.9469 14.1285 20.152 15.5822 20.2756C16.4124 21.5009 17.2816 22.6271 18.1575 23.6133C17.9714 23.8022 17.7808 23.9864 17.586 24.1655C16.422 25.2328 15.2556 25.9901 14.2277 26.3709V26.3709ZM9.90039 17.7941C8.43754 17.2696 7.22945 16.5879 6.40141 15.844C5.65727 15.1757 5.28168 14.5119 5.28168 13.9735C5.28168 12.8275 6.91023 11.3658 9.62652 10.3724C9.95617 10.252 10.3012 10.1382 10.6592 10.0315C11.0346 11.3125 11.5271 12.6518 12.1213 14.0062C11.5193 15.3806 11.0199 16.7413 10.6408 18.0374C10.3921 17.9627 10.1453 17.8816 9.90039 17.7941V17.7941ZM11.3509 7.43581C10.7871 4.41326 11.1616 2.13323 12.1039 1.56098C13.1075 0.951478 15.3268 1.82049 17.6659 3.99935C17.8185 4.14175 17.9685 4.28704 18.1161 4.43515C17.2444 5.41701 16.3832 6.53484 15.5604 7.75285C14.1495 7.89005 12.7989 8.11034 11.5572 8.4055C11.4807 8.08418 11.4119 7.76089 11.3509 7.43593V7.43581ZM24.2916 10.7879C23.9983 10.2565 23.6941 9.73174 23.3793 9.21403C24.3365 9.34102 25.2536 9.50956 26.1148 9.7156C25.8563 10.585 25.534 11.4938 25.1547 12.4257C24.8774 11.8738 24.5897 11.3278 24.2916 10.7879V10.7879ZM19.0144 5.39599C19.6055 6.06782 20.1975 6.81783 20.7798 7.63164C19.5986 7.57312 18.4154 7.57287 17.2341 7.63091C17.817 6.82459 18.4141 6.07556 19.0144 5.39599ZM13.7034 10.7972C13.409 11.3326 13.1266 11.8752 12.8564 12.4245C12.4833 11.496 12.164 10.583 11.9032 9.70134C12.7592 9.50047 13.672 9.33623 14.623 9.21157C14.3047 9.73244 13.9981 10.2611 13.7034 10.797V10.7972ZM14.6504 18.8311C13.6677 18.716 12.7413 18.5602 11.8855 18.3648C12.1504 17.4674 12.4768 16.5349 12.858 15.5865C13.1292 16.1362 13.4128 16.6791 13.7084 17.2149C14.0124 17.7656 14.3271 18.305 14.6504 18.8311ZM19.0498 22.6457C18.4423 21.9582 17.8364 21.1976 17.2448 20.3796C17.8192 20.4032 18.4048 20.4153 19 20.4153C19.6115 20.4153 20.2159 20.4009 20.8109 20.3731C20.2267 21.2059 19.6369 21.9676 19.0498 22.6457ZM25.1668 15.5381C25.5678 16.4969 25.9057 17.4245 26.1741 18.3065C25.3043 18.5148 24.3652 18.6824 23.3757 18.807C23.6927 18.2797 23.9998 17.7458 24.2966 17.2056C24.5984 16.6566 24.8885 16.1006 25.1668 15.5381V15.5381ZM23.1865 16.5339C22.7321 17.3621 22.2521 18.1745 21.7473 18.9699C20.833 19.0378 19.9166 19.0715 19 19.071C18.0664 19.071 17.1583 19.0405 16.2838 18.981C15.7659 18.1875 15.2767 17.3737 14.8175 16.5413H14.8176C14.3605 15.7134 13.9335 14.8675 13.5375 14.0056C13.9325 13.1434 14.3581 12.2972 14.8137 11.4686L14.8136 11.4687C15.269 10.64 15.7542 9.82961 16.2682 9.03947C17.1604 8.96866 18.0753 8.93178 18.9999 8.93178H19C19.9288 8.93178 20.8449 8.96903 21.7368 9.04033C22.2456 9.82929 22.7278 10.6368 23.1823 11.4615C23.6394 12.2882 24.0707 13.1304 24.4756 13.9865C24.0749 14.8514 23.6449 15.7011 23.1865 16.5339V16.5339ZM25.8303 1.5209C26.8348 2.12868 27.2255 4.57959 26.5943 7.79367C26.554 7.99872 26.5088 8.20758 26.4596 8.4194C25.2148 8.11796 23.8633 7.89386 22.4482 7.75458C21.6239 6.52316 20.7698 5.40361 19.9123 4.43441C20.137 4.20717 20.3671 3.98582 20.6023 3.77057C22.8171 1.7487 24.8871 0.950372 25.8303 1.5209V1.5209ZM19 11.1633C20.4795 11.1633 21.6789 12.4215 21.6789 13.9735C21.6789 15.5255 20.4795 16.7837 19 16.7837C17.5205 16.7837 16.3211 15.5255 16.3211 13.9735C16.3211 12.4215 17.5205 11.1633 19 11.1633V11.1633Z" fill="#00D8FF"/>
</g>
<defs>
<filter id="filter0_d" x="0" y="0" width="38" height="36" filterUnits="userSpaceOnUse" color-interpolation-filters="sRGB">
<feFlood flood-opacity="0" result="BackgroundImageFix"/>
<feColorMatrix in="SourceAlpha" type="matrix" values="0 0 0 0 0 0 0 0 0 0 0 0 0 0 0 0 0 0 127 0" result="hardAlpha"/>
<feOffset dy="4"/>
<feGaussianBlur stdDeviation="2"/>
<feComposite in2="hardAlpha" operator="out"/>
<feColorMatrix type="matrix" values="0 0 0 0 0 0 0 0 0 0 0 0 0 0 0 0 0 0 0.25 0"/>
<feBlend mode="normal" in2="BackgroundImageFix" result="effect1_dropShadow"/>
<feBlend mode="normal" in="SourceGraphic" in2="effect1_dropShadow" result="shape"/>
</filter>
</defs>
</svg>

