<svg width="32" height="27" viewBox="0 0 32 27" fill="none" xmlns="http://www.w3.org/2000/svg">
<g filter="url(#filter0_d)">
<path d="M26.11 12.5718C25.2307 12.573 24.3632 12.774 23.573 13.1598C23.3256 12.7492 23.1346 12.3073 23.005 11.8458C22.9306 11.4841 22.9134 11.1129 22.954 10.7458C23.0395 10.3419 23.1504 9.94375 23.286 9.5538C23.281 9.5028 23.225 9.2618 22.662 9.2538C22.099 9.2458 21.614 9.3608 21.562 9.5098C21.4643 9.78195 21.3857 10.0606 21.327 10.3438C20.8611 11.4933 20.2875 12.5962 19.614 13.6378C19.2367 13.0192 19.0815 12.2905 19.174 11.5718C19.2595 11.1679 19.3704 10.7698 19.506 10.3798C19.501 10.3288 19.445 10.0878 18.882 10.0798C18.319 10.0718 17.834 10.1868 17.782 10.3358C17.73 10.4848 17.664 10.8358 17.547 11.1698C17.43 11.5038 16.064 14.5558 15.706 15.3428C15.522 15.7428 15.363 16.0688 15.251 16.2888C15.2457 16.3031 15.239 16.3168 15.231 16.3298L15.078 16.6218V16.6268C15.001 16.7648 14.919 16.8928 14.878 16.8928C14.8065 16.6071 14.81 16.3078 14.888 16.0238C15.088 14.9648 15.578 13.3188 15.573 13.2618C15.573 13.2308 15.665 12.9448 15.256 12.7968C15.1612 12.7517 15.0547 12.737 14.9511 12.7549C14.8476 12.7729 14.7522 12.8224 14.678 12.8968C14.642 12.8968 14.617 12.9838 14.617 12.9838C14.617 12.9838 15.062 11.1328 13.768 11.1328C13.2641 11.2342 12.7856 11.4353 12.3605 11.7243C11.9355 12.0133 11.5725 12.3844 11.293 12.8158C10.945 13.0048 10.204 13.4088 9.41103 13.8438C9.11103 14.0128 8.79703 14.1818 8.50603 14.3438C8.48603 14.3238 8.46503 14.2978 8.44503 14.2778C6.87003 12.5998 3.97503 11.4158 4.10003 9.1708C4.14603 8.3528 4.42703 6.2048 9.65903 3.5958C13.965 1.4738 17.392 2.0618 17.985 3.3658C18.834 5.2278 16.149 8.6848 11.7 9.1858C11.2078 9.28566 10.6995 9.27361 10.2126 9.15054C9.72568 9.02747 9.27266 8.79653 8.88703 8.4748C8.65203 8.2188 8.61603 8.2038 8.52903 8.2548C8.38603 8.3318 8.47803 8.5618 8.52903 8.6948C8.69875 9.00195 8.92832 9.27197 9.20416 9.4889C9.48 9.70582 9.79653 9.86527 10.135 9.9578C11.8853 10.336 13.7101 10.1552 15.352 9.4408C18.052 8.3978 20.152 5.4978 19.536 3.0688C18.917 0.6038 14.826 -0.209201 10.954 1.1688C8.52878 1.98487 6.28786 3.2703 4.35903 4.9518C2.22603 6.9468 1.88903 8.6798 2.02703 9.4068C2.52703 11.9848 6.07803 13.6618 7.49903 14.9068C7.43483 14.9433 7.37015 14.979 7.30503 15.0138C6.59403 15.3668 3.88403 16.7838 3.20503 18.2818C2.43803 19.9818 3.32803 21.1968 3.91603 21.3608C4.80204 21.5729 5.73215 21.503 6.57654 21.161C7.42092 20.8189 8.13743 20.2217 8.62603 19.4528C9.04209 18.815 9.29784 18.0861 9.37149 17.3282C9.44514 16.5703 9.33451 15.8058 9.04903 15.0998C9.04421 15.0884 9.03744 15.0779 9.02903 15.0688L9.58603 14.7418C9.92448 14.5417 10.2672 14.349 10.614 14.1638C10.4059 14.7642 10.2836 15.3911 10.251 16.0258C10.1803 16.9986 10.478 17.9624 11.085 18.7258C11.1774 18.8053 11.2846 18.8657 11.4005 18.9035C11.5163 18.9412 11.6386 18.9556 11.76 18.9458C12.36 18.9458 12.635 18.4458 12.936 17.8518C13.304 17.1258 13.636 16.2818 13.636 16.2818C13.636 16.2818 13.222 18.5628 14.347 18.5628C14.756 18.5628 15.17 18.0308 15.355 17.7628V17.7678L15.386 17.7168L15.452 17.6098V17.5998C15.616 17.3138 15.984 16.6638 16.531 15.5848C17.237 14.1938 17.917 12.4548 17.917 12.4548C17.9826 12.837 18.0731 13.2144 18.188 13.5848C18.3527 14.0337 18.5475 14.4711 18.771 14.8938C18.607 15.1238 18.505 15.2518 18.505 15.2518L18.51 15.2568C18.377 15.4308 18.234 15.6198 18.075 15.8038C17.602 16.3239 17.1631 16.874 16.761 17.4508C16.7013 17.5477 16.6808 17.6637 16.7036 17.7752C16.7265 17.8867 16.791 17.9852 16.884 18.0508C17.0945 18.1603 17.3345 18.1999 17.569 18.1638C17.9225 18.1438 18.27 18.0644 18.597 17.9288C18.913 17.8176 19.2112 17.6609 19.482 17.4638C19.7613 17.2703 19.986 17.0083 20.1347 16.7029C20.2834 16.3975 20.351 16.0589 20.331 15.7198C20.2996 15.2926 20.1905 14.8748 20.009 14.4868C20.06 14.4148 20.109 14.3438 20.157 14.2718C20.7256 13.4232 21.238 12.5383 21.691 11.6228C21.7566 12.005 21.8471 12.3824 21.962 12.7528C22.0979 13.1408 22.2651 13.517 22.462 13.8778C21.808 14.381 21.2928 15.0424 20.965 15.7998C20.643 16.7308 20.893 17.1498 21.365 17.2468C21.6233 17.2646 21.8815 17.2117 22.112 17.0938C22.4509 16.9824 22.7701 16.8184 23.058 16.6078C23.3616 16.4287 23.6158 16.1768 23.7979 15.875C23.98 15.5732 24.0841 15.2309 24.101 14.8788C24.0783 14.5274 23.999 14.1819 23.866 13.8558C24.7291 13.5186 25.6649 13.4111 26.582 13.5438C29.016 13.8298 29.497 15.3488 29.405 15.9888C29.3619 16.2157 29.2707 16.4307 29.1375 16.6194C29.0043 16.8081 28.8323 16.9661 28.633 17.0828C28.464 17.1898 28.408 17.2258 28.423 17.3028C28.443 17.4158 28.523 17.4098 28.668 17.3898C29.0349 17.2758 29.3585 17.0532 29.5963 16.7515C29.8341 16.4498 29.9749 16.0831 30 15.6998C30.077 14.1998 28.645 12.5548 26.113 12.5698L26.11 12.5718ZM7.33003 18.8998C6.52203 19.7798 5.39703 20.1118 4.91103 19.8308C4.38903 19.5308 4.59403 18.2308 5.58603 17.2988C6.17448 16.7691 6.8105 16.2948 7.48603 15.8818C7.60403 15.8098 7.77803 15.7078 7.98603 15.5818L8.04203 15.5508L8.16503 15.4738C8.34225 16.0676 8.35832 16.6978 8.21159 17.2999C8.06485 17.902 7.76059 18.4541 7.33003 18.8998V18.8998ZM13.211 14.8998C12.93 15.5848 12.342 17.3398 11.984 17.2418C11.677 17.1598 11.484 15.8298 11.923 14.5158C12.1447 13.8833 12.4675 13.2909 12.879 12.7618C13.319 12.2708 13.805 12.1068 13.922 12.3068C13.8153 13.2017 13.5756 14.0756 13.211 14.8998V14.8998ZM18.064 17.2218C17.946 17.2828 17.834 17.3218 17.783 17.2938C17.747 17.2738 17.834 17.1938 17.834 17.1938C17.834 17.1938 18.443 16.5388 18.683 16.2428C18.821 16.0688 18.983 15.8648 19.159 15.6338V15.6998C19.159 16.4818 18.402 17.0088 18.065 17.2238L18.064 17.2218ZM21.808 16.3678C21.721 16.3068 21.736 16.1018 22.028 15.4628C22.2311 15.0524 22.5147 14.6871 22.862 14.3888C22.9153 14.5402 22.943 14.6993 22.944 14.8598C22.948 15.2013 22.8388 15.5346 22.6335 15.8075C22.4281 16.0805 22.1383 16.2779 21.809 16.3688L21.808 16.3678Z" fill="#CD6799"/>
</g>
<defs>
<filter id="filter0_d" x="-1.99988" y="0.500977" width="36.0029" height="28.98" filterUnits="userSpaceOnUse" color-interpolation-filters="sRGB">
<feFlood flood-opacity="0" result="BackgroundImageFix"/>
<feColorMatrix in="SourceAlpha" type="matrix" values="0 0 0 0 0 0 0 0 0 0 0 0 0 0 0 0 0 0 127 0" result="hardAlpha"/>
<feOffset dy="4"/>
<feGaussianBlur stdDeviation="2"/>
<feComposite in2="hardAlpha" operator="out"/>
<feColorMatrix type="matrix" values="0 0 0 0 0 0 0 0 0 0 0 0 0 0 0 0 0 0 0.25 0"/>
<feBlend mode="normal" in2="BackgroundImageFix" result="effect1_dropShadow"/>
<feBlend mode="normal" in="SourceGraphic" in2="effect1_dropShadow" result="shape"/>
</filter>
</defs>
</svg>
